<svg width="264" height="382" viewBox="0 0 264 382" fill="none" xmlns="http://www.w3.org/2000/svg">
<path d="M332.231 107.242C338.872 142.633 342.129 174.913 338.323 210.094C334.346 245.157 323.255 282.834 297.931 300.013C272.607 317.192 233.17 313.702 198.137 308.233C162.985 302.934 132.407 295.775 103.656 280.555C75.0749 265.454 48.3207 242.293 41.4124 214.533C34.4524 186.486 47.1683 153.723 61.8483 126.109C76.5282 98.4959 93.0538 76.2024 114.331 48.8937C135.439 21.4666 160.892 -10.7542 193.765 -20.6609C226.519 -30.3976 266.353 -18.0567 291.163 7.5349C315.974 33.1265 325.709 71.6805 332.231 107.242Z" fill="#FF54D9"/>
<path d="M332.231 107.242C338.872 142.633 342.129 174.913 338.323 210.094C334.346 245.157 323.255 282.834 297.931 300.013C272.607 317.192 233.17 313.702 198.137 308.233C162.985 302.934 132.407 295.775 103.656 280.555C75.0749 265.454 48.3207 242.293 41.4124 214.533C34.4524 186.486 47.1683 153.723 61.8483 126.109C76.5282 98.4959 93.0538 76.2024 114.331 48.8937C135.439 21.4666 160.892 -10.7542 193.765 -20.6609C226.519 -30.3976 266.353 -18.0567 291.163 7.5349C315.974 33.1265 325.709 71.6805 332.231 107.242Z" fill="url(#paint0_linear)"/>
<defs>
<linearGradient id="paint0_linear" x1="404.5" y1="-64" x2="123.19" y2="295.866" gradientUnits="userSpaceOnUse">
<stop stop-color="white"/>
<stop offset="1" stop-color="white" stop-opacity="0"/>
</linearGradient>
</defs>
</svg>
