<svg width="380" height="322" viewBox="0 0 380 322" fill="none" xmlns="http://www.w3.org/2000/svg">
<path d="M238.465 132.297C285.448 168.606 336.959 195.887 353.48 238.752C370 281.617 351.774 339.73 315.332 370.692C278.889 401.655 224.184 405.176 166.583 418.658C108.692 432.186 47.9515 455.963 1.75501 437.95C-44.686 420.272 -76.8725 360.849 -89.7506 295.727C-102.629 230.604 -96.1983 159.782 -60.5429 110.525C-24.6429 60.9312 40.8174 33.1461 94.7305 41.6318C148.979 50.3621 191.436 95.6986 238.465 132.297Z" fill="#AF7EE8"/>
<path d="M238.465 132.297C285.448 168.606 336.959 195.887 353.48 238.752C370 281.617 351.774 339.73 315.332 370.692C278.889 401.655 224.184 405.176 166.583 418.658C108.692 432.186 47.9515 455.963 1.75501 437.95C-44.686 420.272 -76.8725 360.849 -89.7506 295.727C-102.629 230.604 -96.1983 159.782 -60.5429 110.525C-24.6429 60.9312 40.8174 33.1461 94.7305 41.6318C148.979 50.3621 191.436 95.6986 238.465 132.297Z" fill="url(#paint0_linear)"/>
<defs>
<linearGradient id="paint0_linear" x1="-247" y1="434" x2="231" y2="254" gradientUnits="userSpaceOnUse">
<stop stop-color="white"/>
<stop offset="1" stop-color="white" stop-opacity="0"/>
</linearGradient>
</defs>
</svg>
