<svg width="245" height="182" viewBox="0 0 245 182" fill="none" xmlns="http://www.w3.org/2000/svg">
<path d="M195.074 87.2743C184.26 106.36 173.094 122.669 157.5 137.553C141.872 152.315 121.905 165.498 103.366 163.546C84.8266 161.595 67.8369 144.475 53.6751 128.165C39.3914 111.887 27.9682 96.5397 20.5623 78.1578C13.189 59.8978 9.83307 38.603 17.5232 22.965C25.3025 7.17245 44.0952 -3.08516 61.7788 -10.1734C79.4625 -17.2617 95.9152 -21.148 116.551 -25.5023C137.154 -29.9784 161.663 -34.9791 180.86 -26.6759C199.935 -18.3401 213.632 3.05604 215.128 24.7186C216.624 46.3811 206.009 68.1556 195.074 87.2743Z" fill="#2FC1FF"/>
<path d="M195.074 87.2743C184.26 106.36 173.094 122.669 157.5 137.553C141.872 152.315 121.905 165.498 103.366 163.546C84.8266 161.595 67.8369 144.475 53.6751 128.165C39.3914 111.887 27.9682 96.5397 20.5623 78.1578C13.189 59.8978 9.83307 38.603 17.5232 22.965C25.3025 7.17245 44.0952 -3.08516 61.7788 -10.1734C79.4625 -17.2617 95.9152 -21.148 116.551 -25.5023C137.154 -29.9784 161.663 -34.9791 180.86 -26.6759C199.935 -18.3401 213.632 3.05604 215.128 24.7186C216.624 46.3811 206.009 68.1556 195.074 87.2743Z" fill="url(#paint0_linear)"/>
<defs>
<linearGradient id="paint0_linear" x1="258.5" y1="-103" x2="23.641" y2="92.961" gradientUnits="userSpaceOnUse">
<stop stop-color="white"/>
<stop offset="1" stop-color="white" stop-opacity="0"/>
</linearGradient>
</defs>
</svg>
