<svg width="16" height="16" viewBox="0 0 16 16" fill="none" xmlns="http://www.w3.org/2000/svg">
<path d="M15.4042 3.29413L12.6642 0.544205C12.3066 0.207084 11.838 0.0136488 11.3475 0.000695267C10.8571 -0.0122583 10.379 0.156174 10.0042 0.473951L1.0042 9.50655C0.680969 9.8337 0.479707 10.2625 0.434203 10.7209L0.00420295 14.906C-0.00926809 15.053 0.00973728 15.2012 0.0598642 15.34C0.109991 15.4788 0.190005 15.6047 0.294203 15.7089C0.387643 15.802 0.498459 15.8755 0.620297 15.9255C0.742134 15.9754 0.872596 16.0007 1.0042 16H1.0942L5.2642 15.6186C5.721 15.5729 6.14824 15.3709 6.4742 15.0465L15.4742 6.01395C15.8235 5.64358 16.0123 5.14933 15.9992 4.63952C15.9861 4.12971 15.7721 3.64591 15.4042 3.29413ZM5.0842 13.6114L2.0842 13.8924L2.3542 10.8815L8.0042 5.2813L10.7042 7.99108L5.0842 13.6114ZM12.0042 6.64623L9.3242 3.95652L11.2742 1.94928L14.0042 4.68916L12.0042 6.64623Z" fill="white"/>
</svg>
