<svg width="57" height="45" viewBox="0 0 57 45" fill="none" xmlns="http://www.w3.org/2000/svg">
<path d="M27.0535 16.0624C25.6036 18.5636 21.9787 18.5636 20.5288 16.0624L14.4798 5.62769C13.0299 3.12649 14.8423 0 17.7422 0H29.8402C32.74 0 34.5525 3.12649 33.1025 5.62769L27.0535 16.0624Z" fill="#2CC0FF"/>
<path d="M27.0535 16.0624C25.6036 18.5636 21.9787 18.5636 20.5288 16.0624L14.4798 5.62769C13.0299 3.12649 14.8423 0 17.7422 0H29.8402C32.74 0 34.5525 3.12649 33.1025 5.62769L27.0535 16.0624Z" fill="url(#paint0_linear)"/>
<path d="M43.916 2.64676C45.3659 0.145569 48.9908 0.145571 50.4407 2.64677L56.4897 13.0814C57.9396 15.5826 56.1272 18.7091 53.2273 18.7091H41.1294C38.2295 18.7091 36.4171 15.5826 37.867 13.0814L43.916 2.64676Z" fill="#2CC0FF"/>
<path d="M43.916 2.64676C45.3659 0.145569 48.9908 0.145571 50.4407 2.64677L56.4897 13.0814C57.9396 15.5826 56.1272 18.7091 53.2273 18.7091H41.1294C38.2295 18.7091 36.4171 15.5826 37.867 13.0814L43.916 2.64676Z" fill="url(#paint1_linear)"/>
<path d="M6.55929 5.77326C8.00923 3.27206 11.6341 3.27206 13.084 5.77326L19.133 16.2079C20.583 18.7091 18.7705 21.8356 15.8706 21.8356H3.77268C0.872796 21.8356 -0.93963 18.7091 0.510312 16.2079L6.55929 5.77326Z" fill="#2CC0FF"/>
<path d="M6.55929 5.77326C8.00923 3.27206 11.6341 3.27206 13.084 5.77326L19.133 16.2079C20.583 18.7091 18.7705 21.8356 15.8706 21.8356H3.77268C0.872796 21.8356 -0.93963 18.7091 0.510312 16.2079L6.55929 5.77326Z" fill="url(#paint2_linear)"/>
<path d="M20.5288 28.9376C21.9787 26.4364 25.6036 26.4364 27.0535 28.9376L33.1025 39.3723C34.5525 41.8735 32.74 45 29.8402 45H17.7422C14.8423 45 13.0299 41.8735 14.4798 39.3723L20.5288 28.9376Z" fill="#2CC0FF"/>
<path d="M20.5288 28.9376C21.9787 26.4364 25.6036 26.4364 27.0535 28.9376L33.1025 39.3723C34.5525 41.8735 32.74 45 29.8402 45H17.7422C14.8423 45 13.0299 41.8735 14.4798 39.3723L20.5288 28.9376Z" fill="url(#paint3_linear)"/>
<path d="M13.084 39.2267C11.6341 41.7279 8.00923 41.7279 6.55929 39.2267L0.510311 28.7921C-0.939632 26.2909 0.872796 23.1644 3.77268 23.1644H15.8706C18.7705 23.1644 20.5829 26.2909 19.133 28.7921L13.084 39.2267Z" fill="#2CC0FF"/>
<path d="M13.084 39.2267C11.6341 41.7279 8.00923 41.7279 6.55929 39.2267L0.510311 28.7921C-0.939632 26.2909 0.872796 23.1644 3.77268 23.1644H15.8706C18.7705 23.1644 20.5829 26.2909 19.133 28.7921L13.084 39.2267Z" fill="url(#paint4_linear)"/>
<path d="M41.0231 39.2267C39.5731 41.7279 35.9483 41.7279 34.4983 39.2267L28.4493 28.7921C26.9994 26.2909 28.8118 23.1644 31.7117 23.1644H43.8097C46.7096 23.1644 48.522 26.2909 47.072 28.7921L41.0231 39.2267Z" fill="#2CC0FF"/>
<path d="M41.0231 39.2267C39.5731 41.7279 35.9483 41.7279 34.4983 39.2267L28.4493 28.7921C26.9994 26.2909 28.8118 23.1644 31.7117 23.1644H43.8097C46.7096 23.1644 48.522 26.2909 47.072 28.7921L41.0231 39.2267Z" fill="url(#paint5_linear)"/>
<defs>
<linearGradient id="paint0_linear" x1="3.62171" y1="41.0743" x2="51.3288" y2="-0.230731" gradientUnits="userSpaceOnUse">
<stop stop-color="#2FC1FF"/>
<stop offset="1" stop-color="#FF54D9"/>
</linearGradient>
<linearGradient id="paint1_linear" x1="3.62171" y1="41.0743" x2="51.3288" y2="-0.230731" gradientUnits="userSpaceOnUse">
<stop stop-color="#2FC1FF"/>
<stop offset="1" stop-color="#FF54D9"/>
</linearGradient>
<linearGradient id="paint2_linear" x1="3.62171" y1="41.0743" x2="51.3288" y2="-0.230731" gradientUnits="userSpaceOnUse">
<stop stop-color="#2FC1FF"/>
<stop offset="1" stop-color="#FF54D9"/>
</linearGradient>
<linearGradient id="paint3_linear" x1="3.62171" y1="41.0743" x2="51.3288" y2="-0.230731" gradientUnits="userSpaceOnUse">
<stop stop-color="#2FC1FF"/>
<stop offset="1" stop-color="#FF54D9"/>
</linearGradient>
<linearGradient id="paint4_linear" x1="3.62171" y1="41.0743" x2="51.3288" y2="-0.230731" gradientUnits="userSpaceOnUse">
<stop stop-color="#2FC1FF"/>
<stop offset="1" stop-color="#FF54D9"/>
</linearGradient>
<linearGradient id="paint5_linear" x1="3.62171" y1="41.0743" x2="51.3288" y2="-0.230731" gradientUnits="userSpaceOnUse">
<stop stop-color="#2FC1FF"/>
<stop offset="1" stop-color="#FF54D9"/>
</linearGradient>
</defs>
</svg>
