<svg width="445" height="249" viewBox="0 0 445 249" fill="none" xmlns="http://www.w3.org/2000/svg">
<path d="M93.0077 230.504C89.6957 230.504 86.7197 229.928 84.0797 228.776C81.4877 227.576 79.4477 225.944 77.9597 223.88C76.4717 221.768 75.7037 219.344 75.6557 216.608H82.6397C82.8797 218.96 83.8397 220.952 85.5197 222.584C87.2477 224.168 89.7437 224.96 93.0077 224.96C96.1277 224.96 98.5757 224.192 100.352 222.656C102.176 221.072 103.088 219.056 103.088 216.608C103.088 214.688 102.56 213.128 101.504 211.928C100.448 210.728 99.1277 209.816 97.5437 209.192C95.9597 208.568 93.8237 207.896 91.1357 207.176C87.8237 206.312 85.1597 205.448 83.1437 204.584C81.1757 203.72 79.4717 202.376 78.0317 200.552C76.6397 198.68 75.9437 196.184 75.9437 193.064C75.9437 190.328 76.6397 187.904 78.0317 185.792C79.4237 183.68 81.3677 182.048 83.8637 180.896C86.4077 179.744 89.3117 179.168 92.5757 179.168C97.2797 179.168 101.12 180.344 104.096 182.696C107.12 185.048 108.824 188.168 109.208 192.056H102.008C101.768 190.136 100.76 188.456 98.9837 187.016C97.2077 185.528 94.8557 184.784 91.9277 184.784C89.1917 184.784 86.9597 185.504 85.2317 186.944C83.5037 188.336 82.6397 190.304 82.6397 192.848C82.6397 194.672 83.1437 196.16 84.1517 197.312C85.2077 198.464 86.4797 199.352 87.9677 199.976C89.5037 200.552 91.6397 201.224 94.3757 201.992C97.6877 202.904 100.352 203.816 102.368 204.728C104.384 205.592 106.112 206.96 107.552 208.832C108.992 210.656 109.712 213.152 109.712 216.32C109.712 218.768 109.064 221.072 107.768 223.232C106.472 225.392 104.552 227.144 102.008 228.488C99.4637 229.832 96.4637 230.504 93.0077 230.504ZM135.122 230.648C131.426 230.648 128.066 229.808 125.042 228.128C122.066 226.448 119.714 224.072 117.986 221C116.306 217.88 115.466 214.28 115.466 210.2C115.466 206.168 116.33 202.616 118.058 199.544C119.834 196.424 122.234 194.048 125.258 192.416C128.282 190.736 131.666 189.896 135.41 189.896C139.154 189.896 142.538 190.736 145.562 192.416C148.586 194.048 150.962 196.4 152.69 199.472C154.466 202.544 155.354 206.12 155.354 210.2C155.354 214.28 154.442 217.88 152.618 221C150.842 224.072 148.418 226.448 145.346 228.128C142.274 229.808 138.866 230.648 135.122 230.648ZM135.122 224.888C137.474 224.888 139.682 224.336 141.746 223.232C143.81 222.128 145.466 220.472 146.714 218.264C148.01 216.056 148.658 213.368 148.658 210.2C148.658 207.032 148.034 204.344 146.786 202.136C145.538 199.928 143.906 198.296 141.89 197.24C139.874 196.136 137.69 195.584 135.338 195.584C132.938 195.584 130.73 196.136 128.714 197.24C126.746 198.296 125.162 199.928 123.962 202.136C122.762 204.344 122.162 207.032 122.162 210.2C122.162 213.416 122.738 216.128 123.89 218.336C125.09 220.544 126.674 222.2 128.642 223.304C130.61 224.36 132.77 224.888 135.122 224.888ZM160.08 210.2C160.08 206.12 160.896 202.568 162.528 199.544C164.16 196.472 166.416 194.096 169.296 192.416C172.224 190.736 175.56 189.896 179.304 189.896C184.152 189.896 188.136 191.072 191.256 193.424C194.424 195.776 196.512 199.04 197.52 203.216H190.464C189.792 200.816 188.472 198.92 186.504 197.528C184.584 196.136 182.184 195.44 179.304 195.44C175.56 195.44 172.536 196.736 170.232 199.328C167.928 201.872 166.776 205.496 166.776 210.2C166.776 214.952 167.928 218.624 170.232 221.216C172.536 223.808 175.56 225.104 179.304 225.104C182.184 225.104 184.584 224.432 186.504 223.088C188.424 221.744 189.744 219.824 190.464 217.328H197.52C196.464 221.36 194.352 224.6 191.184 227.048C188.016 229.448 184.056 230.648 179.304 230.648C175.56 230.648 172.224 229.808 169.296 228.128C166.416 226.448 164.16 224.072 162.528 221C160.896 217.928 160.08 214.328 160.08 210.2ZM211.375 196.952C212.527 194.696 214.159 192.944 216.271 191.696C218.431 190.448 221.047 189.824 224.119 189.824V196.592H222.391C215.047 196.592 211.375 200.576 211.375 208.544V230H204.823V190.544H211.375V196.952ZM227.794 210.128C227.794 206.096 228.61 202.568 230.242 199.544C231.874 196.472 234.106 194.096 236.938 192.416C239.818 190.736 243.01 189.896 246.514 189.896C249.97 189.896 252.97 190.64 255.514 192.128C258.058 193.616 259.954 195.488 261.202 197.744V190.544H267.826V230H261.202V222.656C259.906 224.96 257.962 226.88 255.37 228.416C252.826 229.904 249.85 230.648 246.442 230.648C242.938 230.648 239.77 229.784 236.938 228.056C234.106 226.328 231.874 223.904 230.242 220.784C228.61 217.664 227.794 214.112 227.794 210.128ZM261.202 210.2C261.202 207.224 260.602 204.632 259.402 202.424C258.202 200.216 256.57 198.536 254.506 197.384C252.49 196.184 250.258 195.584 247.81 195.584C245.362 195.584 243.13 196.16 241.114 197.312C239.098 198.464 237.49 200.144 236.29 202.352C235.09 204.56 234.49 207.152 234.49 210.128C234.49 213.152 235.09 215.792 236.29 218.048C237.49 220.256 239.098 221.96 241.114 223.16C243.13 224.312 245.362 224.888 247.81 224.888C250.258 224.888 252.49 224.312 254.506 223.16C256.57 221.96 258.202 220.256 259.402 218.048C260.602 215.792 261.202 213.176 261.202 210.2ZM285.45 195.944V219.2C285.45 221.12 285.858 222.488 286.674 223.304C287.49 224.072 288.906 224.456 290.922 224.456H295.746V230H289.842C286.194 230 283.458 229.16 281.634 227.48C279.81 225.8 278.898 223.04 278.898 219.2V195.944H273.786V190.544H278.898V180.608H285.45V190.544H295.746V195.944H285.45ZM336.229 190.544L312.469 248.576H305.701L313.477 229.568L297.565 190.544H304.837L317.221 222.512L329.461 190.544H336.229ZM355.343 230.648C352.319 230.648 349.607 230.144 347.207 229.136C344.807 228.08 342.911 226.64 341.519 224.816C340.127 222.944 339.359 220.808 339.215 218.408H345.983C346.175 220.376 347.087 221.984 348.719 223.232C350.399 224.48 352.583 225.104 355.271 225.104C357.767 225.104 359.735 224.552 361.175 223.448C362.615 222.344 363.335 220.952 363.335 219.272C363.335 217.544 362.567 216.272 361.031 215.456C359.495 214.592 357.119 213.752 353.903 212.936C350.975 212.168 348.575 211.4 346.703 210.632C344.879 209.816 343.295 208.64 341.951 207.104C340.655 205.52 340.007 203.456 340.007 200.912C340.007 198.896 340.607 197.048 341.807 195.368C343.007 193.688 344.711 192.368 346.919 191.408C349.127 190.4 351.647 189.896 354.479 189.896C358.847 189.896 362.375 191 365.063 193.208C367.751 195.416 369.191 198.44 369.383 202.28H362.831C362.687 200.216 361.847 198.56 360.311 197.312C358.823 196.064 356.807 195.44 354.263 195.44C351.911 195.44 350.039 195.944 348.647 196.952C347.255 197.96 346.559 199.28 346.559 200.912C346.559 202.208 346.967 203.288 347.783 204.152C348.647 204.968 349.703 205.64 350.951 206.168C352.247 206.648 354.023 207.2 356.279 207.824C359.111 208.592 361.415 209.36 363.191 210.128C364.967 210.848 366.479 211.952 367.727 213.44C369.023 214.928 369.695 216.872 369.743 219.272C369.743 221.432 369.143 223.376 367.943 225.104C366.743 226.832 365.039 228.2 362.831 229.208C360.671 230.168 358.175 230.648 355.343 230.648Z" fill="#6F7A84"/>
<path d="M218.142 51.5C213.523 59.5 201.977 59.5 197.358 51.5L178.089 18.125C173.47 10.125 179.243 0.125 188.481 0.125H227.019C236.257 0.125 242.03 10.125 237.411 18.125L218.142 51.5Z" fill="#2CC0FF"/>
<path d="M218.142 51.5C213.523 59.5 201.977 59.5 197.358 51.5L178.089 18.125C173.47 10.125 179.243 0.125 188.481 0.125H227.019C236.257 0.125 242.03 10.125 237.411 18.125L218.142 51.5Z" fill="url(#paint0_linear)"/>
<path d="M271.858 8.5906C276.477 0.590597 288.023 0.590603 292.642 8.5906L311.911 41.9656C316.53 49.9656 310.757 59.9656 301.519 59.9656H262.981C253.743 59.9656 247.97 49.9656 252.589 41.9656L271.858 8.5906Z" fill="#2CC0FF"/>
<path d="M271.858 8.5906C276.477 0.590597 288.023 0.590603 292.642 8.5906L311.911 41.9656C316.53 49.9656 310.757 59.9656 301.519 59.9656H262.981C253.743 59.9656 247.97 49.9656 252.589 41.9656L271.858 8.5906Z" fill="url(#paint1_linear)"/>
<path d="M152.858 18.5906C157.477 10.5906 169.024 10.5906 173.642 18.5906L192.911 51.9656C197.53 59.9656 191.757 69.9656 182.519 69.9656H143.981C134.743 69.9656 128.97 59.9656 133.589 51.9656L152.858 18.5906Z" fill="#2CC0FF"/>
<path d="M152.858 18.5906C157.477 10.5906 169.024 10.5906 173.642 18.5906L192.911 51.9656C197.53 59.9656 191.757 69.9656 182.519 69.9656H143.981C134.743 69.9656 128.97 59.9656 133.589 51.9656L152.858 18.5906Z" fill="url(#paint2_linear)"/>
<path d="M197.358 92.6812C201.977 84.6812 213.524 84.6812 218.142 92.6812L237.411 126.056C242.03 134.056 236.257 144.056 227.019 144.056H188.481C179.243 144.056 173.47 134.056 178.089 126.056L197.358 92.6812Z" fill="#2CC0FF"/>
<path d="M197.358 92.6812C201.977 84.6812 213.524 84.6812 218.142 92.6812L237.411 126.056C242.03 134.056 236.257 144.056 227.019 144.056H188.481C179.243 144.056 173.47 134.056 178.089 126.056L197.358 92.6812Z" fill="url(#paint3_linear)"/>
<path d="M173.642 125.591C169.024 133.591 157.477 133.591 152.858 125.591L133.589 92.2156C128.97 84.2156 134.743 74.2156 143.981 74.2156H182.519C191.757 74.2156 197.53 84.2156 192.911 92.2156L173.642 125.591Z" fill="#2CC0FF"/>
<path d="M173.642 125.591C169.024 133.591 157.477 133.591 152.858 125.591L133.589 92.2156C128.97 84.2156 134.743 74.2156 143.981 74.2156H182.519C191.757 74.2156 197.53 84.2156 192.911 92.2156L173.642 125.591Z" fill="url(#paint4_linear)"/>
<path d="M262.642 125.591C258.023 133.591 246.477 133.591 241.858 125.591L222.589 92.2156C217.97 84.2156 223.743 74.2156 232.981 74.2156H271.519C280.757 74.2156 286.53 84.2156 281.911 92.2156L262.642 125.591Z" fill="#2CC0FF"/>
<path d="M262.642 125.591C258.023 133.591 246.477 133.591 241.858 125.591L222.589 92.2156C217.97 84.2156 223.743 74.2156 232.981 74.2156H271.519C280.757 74.2156 286.53 84.2156 281.911 92.2156L262.642 125.591Z" fill="url(#paint5_linear)"/>
<defs>
<linearGradient id="paint0_linear" x1="143.5" y1="131.5" x2="296" y2="-9.98307e-06" gradientUnits="userSpaceOnUse">
<stop stop-color="#2FC1FF"/>
<stop offset="1" stop-color="#FF54D9"/>
</linearGradient>
<linearGradient id="paint1_linear" x1="143.5" y1="131.5" x2="296" y2="-9.98307e-06" gradientUnits="userSpaceOnUse">
<stop stop-color="#2FC1FF"/>
<stop offset="1" stop-color="#FF54D9"/>
</linearGradient>
<linearGradient id="paint2_linear" x1="143.5" y1="131.5" x2="296" y2="-9.98307e-06" gradientUnits="userSpaceOnUse">
<stop stop-color="#2FC1FF"/>
<stop offset="1" stop-color="#FF54D9"/>
</linearGradient>
<linearGradient id="paint3_linear" x1="143.5" y1="131.5" x2="296" y2="-9.98307e-06" gradientUnits="userSpaceOnUse">
<stop stop-color="#2FC1FF"/>
<stop offset="1" stop-color="#FF54D9"/>
</linearGradient>
<linearGradient id="paint4_linear" x1="143.5" y1="131.5" x2="296" y2="-9.98307e-06" gradientUnits="userSpaceOnUse">
<stop stop-color="#2FC1FF"/>
<stop offset="1" stop-color="#FF54D9"/>
</linearGradient>
<linearGradient id="paint5_linear" x1="143.5" y1="131.5" x2="296" y2="-9.98307e-06" gradientUnits="userSpaceOnUse">
<stop stop-color="#2FC1FF"/>
<stop offset="1" stop-color="#FF54D9"/>
</linearGradient>
</defs>
</svg>
