<svg width="25" height="25" viewBox="0 0 25 25" fill="none" xmlns="http://www.w3.org/2000/svg">
<path opacity="0.5" d="M16.1901 2.71192C17.7274 4.21228 18.6896 6.18173 18.9157 8.29081C19.1418 10.3999 18.6181 12.5207 17.4322 14.2985C17.6392 14.4666 17.8117 14.6516 18.0532 14.8198C18.3983 15.0888 18.864 15.4252 19.4506 15.8119C20.0371 16.2155 20.4166 16.4678 20.5892 16.6023C21.3137 17.1236 21.8485 17.5609 22.2108 17.914C22.7628 18.4521 23.2458 19.0071 23.6598 19.5956C24.0911 20.1842 24.4189 20.756 24.6777 21.3446C24.9192 21.9331 25.0399 22.4881 24.9882 23.0262C24.9537 23.5643 24.7467 24.0184 24.3671 24.3883C23.9876 24.7583 23.5218 24.9601 22.9698 24.9937C22.435 25.0274 21.8485 24.9265 21.2619 24.6742C20.6582 24.4388 20.0544 24.1025 19.4678 23.682C18.864 23.2784 18.2948 22.8076 17.7427 22.2695C17.3805 21.9163 16.9319 21.395 16.4144 20.7055C16.2419 20.4869 15.9831 20.117 15.6036 19.5956C15.2241 19.0575 14.9136 18.6371 14.6375 18.284C14.3615 17.9476 14.1373 17.6954 13.8785 17.4431C12.0879 18.3571 10.0448 18.6901 8.04662 18.3937C6.04843 18.0973 4.19943 17.1869 2.7688 15.7951C-0.922932 12.1796 -0.922932 6.31064 2.7688 2.71192C3.64968 1.8522 4.69576 1.17018 5.84723 0.704846C6.9987 0.239514 8.23297 0 9.47946 0C10.726 0 11.9602 0.239514 13.1117 0.704846C14.2632 1.17018 15.3093 1.8522 16.1901 2.71192ZM13.7577 13.4072C14.8847 12.3006 15.5172 10.8045 15.5172 9.24511C15.5172 7.68577 14.8847 6.18967 13.7577 5.08304C13.1976 4.53543 12.5322 4.10094 11.7995 3.80449C11.0668 3.50803 10.2814 3.35543 9.48809 3.35543C8.69481 3.35543 7.90933 3.50803 7.17667 3.80449C6.444 4.10094 5.77855 4.53543 5.21845 5.08304C4.65669 5.62903 4.21097 6.27771 3.90686 6.99192C3.60274 7.70613 3.4462 8.47182 3.4462 9.24511C3.4462 10.0184 3.60274 10.7841 3.90686 11.4983C4.21097 12.2125 4.65669 12.8612 5.21845 13.4072C5.77855 13.9548 6.444 14.3893 7.17667 14.6857C7.90933 14.9822 8.69481 15.1348 9.48809 15.1348C10.2814 15.1348 11.0668 14.9822 11.7995 14.6857C12.5322 14.3893 13.1976 13.9548 13.7577 13.4072Z" fill="#6F7A84"/>
</svg>
