<svg width="116" height="28" viewBox="0 0 116 28" fill="none" xmlns="http://www.w3.org/2000/svg">
<path d="M6.84433 20.7095C5.53795 20.7095 4.36409 20.4772 3.32277 20.0124C2.30038 19.5284 1.49572 18.87 0.908791 18.0373C0.321863 17.1853 0.0189331 16.2075 0 15.1037H2.75477C2.84944 16.0526 3.2281 16.8562 3.89076 17.5145C4.57235 18.1535 5.55688 18.473 6.84433 18.473C8.07499 18.473 9.04058 18.1632 9.7411 17.5436C10.4606 16.9046 10.8203 16.0913 10.8203 15.1037C10.8203 14.3292 10.612 13.6999 10.1955 13.2158C9.77897 12.7317 9.25831 12.3638 8.63352 12.112C8.00872 11.8603 7.1662 11.5892 6.10594 11.2988C4.79955 10.9502 3.74876 10.6017 2.95357 10.2531C2.17731 9.90456 1.50519 9.36238 0.937191 8.62656C0.388129 7.87137 0.113599 6.86445 0.113599 5.60581C0.113599 4.50207 0.388129 3.5242 0.937191 2.6722C1.48625 1.82019 2.25304 1.16183 3.23757 0.697095C4.24102 0.232365 5.38648 0 6.67393 0C8.52938 0 10.044 0.474412 11.2179 1.42324C12.4107 2.37206 13.0828 3.6307 13.2343 5.19917H10.3943C10.2996 4.42462 9.90204 3.74689 9.20151 3.16598C8.50098 2.5657 7.57326 2.26556 6.41834 2.26556C5.33915 2.26556 4.45876 2.55602 3.77716 3.13693C3.09557 3.69848 2.75477 4.49239 2.75477 5.51867C2.75477 6.25449 2.95357 6.85477 3.35117 7.3195C3.7677 7.78423 4.26942 8.14246 4.85635 8.39419C5.46221 8.62656 6.30474 8.89765 7.38393 9.20747C8.69031 9.57538 9.7411 9.94329 10.5363 10.3112C11.3315 10.6598 12.0131 11.2116 12.5811 11.9668C13.1491 12.7026 13.4331 13.7095 13.4331 14.9875C13.4331 15.9751 13.1775 16.9046 12.6663 17.7759C12.1551 18.6473 11.3978 19.3541 10.3943 19.8963C9.39084 20.4385 8.20752 20.7095 6.84433 20.7095Z" fill="#6F7A84"/>
<path d="M23.4557 20.7676C21.9979 20.7676 20.6726 20.4288 19.4798 19.751C18.3059 19.0733 17.3782 18.1148 16.6966 16.8755C16.0339 15.6169 15.7026 14.1646 15.7026 12.5187C15.7026 10.8921 16.0434 9.4592 16.725 8.21992C17.4255 6.96127 18.3722 6.00277 19.565 5.3444C20.7578 4.66667 22.0925 4.3278 23.5693 4.3278C25.0461 4.3278 26.3809 4.66667 27.5737 5.3444C28.7665 6.00277 29.7037 6.95159 30.3853 8.19087C31.0858 9.43015 31.436 10.8728 31.436 12.5187C31.436 14.1646 31.0763 15.6169 30.3569 16.8755C29.6563 18.1148 28.7002 19.0733 27.4885 19.751C26.2768 20.4288 24.9325 20.7676 23.4557 20.7676ZM23.4557 18.444C24.3835 18.444 25.2544 18.2213 26.0685 17.7759C26.8826 17.3306 27.5358 16.6625 28.0281 15.7718C28.5393 14.881 28.7949 13.7967 28.7949 12.5187C28.7949 11.2407 28.5487 10.1563 28.0565 9.26556C27.5642 8.37483 26.9205 7.71646 26.1253 7.29046C25.3301 6.84509 24.4687 6.62241 23.5409 6.62241C22.5943 6.62241 21.7233 6.84509 20.9282 7.29046C20.1519 7.71646 19.5271 8.37483 19.0538 9.26556C18.5804 10.1563 18.3438 11.2407 18.3438 12.5187C18.3438 13.816 18.571 14.9101 19.0254 15.8008C19.4987 16.6916 20.1235 17.3596 20.8998 17.805C21.676 18.231 22.528 18.444 23.4557 18.444Z" fill="#6F7A84"/>
<path d="M33.3004 12.5187C33.3004 10.8728 33.6223 9.43983 34.266 8.21992C34.9098 6.98064 35.7996 6.02213 36.9356 5.3444C38.0905 4.66667 39.4064 4.3278 40.8832 4.3278C42.7954 4.3278 44.3669 4.80221 45.5975 5.75104C46.8471 6.69986 47.6707 8.0166 48.0683 9.70124H45.2851C45.0201 8.73306 44.4994 7.96819 43.7231 7.40664C42.9658 6.84509 42.0192 6.56431 40.8832 6.56431C39.4064 6.56431 38.2136 7.08714 37.3048 8.13278C36.396 9.15906 35.9416 10.621 35.9416 12.5187C35.9416 14.4357 36.396 15.917 37.3048 16.9627C38.2136 18.0083 39.4064 18.5311 40.8832 18.5311C42.0192 18.5311 42.9658 18.26 43.7231 17.7178C44.4805 17.1757 45.0011 16.4011 45.2851 15.3942H48.0683C47.6518 17.0207 46.8187 18.3278 45.5691 19.3153C44.3195 20.2835 42.7576 20.7676 40.8832 20.7676C39.4064 20.7676 38.0905 20.4288 36.9356 19.751C35.7996 19.0733 34.9098 18.1148 34.266 16.8755C33.6223 15.6362 33.3004 14.184 33.3004 12.5187Z" fill="#6F7A84"/>
<path d="M53.533 7.17427C53.9874 6.26418 54.6312 5.5574 55.4642 5.05394C56.3162 4.55048 57.3481 4.29875 58.5598 4.29875V7.02905H57.8782C54.9814 7.02905 53.533 8.63624 53.533 11.8506V20.5062H50.9487V4.58921H53.533V7.17427Z" fill="#6F7A84"/>
<path d="M60.0095 12.4896C60.0095 10.8631 60.3314 9.43983 60.9751 8.21992C61.6188 6.98064 62.4992 6.02213 63.6163 5.3444C64.7522 4.66667 66.0113 4.3278 67.3934 4.3278C68.7566 4.3278 69.9399 4.62794 70.9434 5.22822C71.9468 5.82849 72.6947 6.58368 73.187 7.49377V4.58921H75.7997V20.5062H73.187V17.5436C72.6758 18.473 71.909 19.2476 70.8866 19.8672C69.8831 20.4675 68.7093 20.7676 67.365 20.7676C65.9829 20.7676 64.7333 20.4191 63.6163 19.722C62.4992 19.0249 61.6188 18.047 60.9751 16.7884C60.3314 15.5297 60.0095 14.0968 60.0095 12.4896ZM73.187 12.5187C73.187 11.3181 72.9503 10.2725 72.477 9.38174C72.0037 8.49101 71.3599 7.81328 70.5458 7.34855C69.7506 6.86445 68.8702 6.62241 67.9046 6.62241C66.939 6.62241 66.0586 6.85477 65.2634 7.3195C64.4683 7.78423 63.834 8.46196 63.3607 9.3527C62.8873 10.2434 62.6507 11.2891 62.6507 12.4896C62.6507 13.7095 62.8873 14.7745 63.3607 15.6846C63.834 16.5754 64.4683 17.2628 65.2634 17.7469C66.0586 18.2116 66.939 18.444 67.9046 18.444C68.8702 18.444 69.7506 18.2116 70.5458 17.7469C71.3599 17.2628 72.0037 16.5754 72.477 15.6846C72.9503 14.7745 73.187 13.7192 73.187 12.5187Z" fill="#6F7A84"/>
<path d="M82.7515 6.76763V16.1494C82.7515 16.9239 82.9124 17.4758 83.2343 17.805C83.5561 18.1148 84.1147 18.2697 84.9098 18.2697H86.8126V20.5062H84.4838C83.0449 20.5062 81.9657 20.1674 81.2463 19.4896C80.5268 18.8119 80.1671 17.6985 80.1671 16.1494V6.76763H78.1507V4.58921H80.1671V0.580912H82.7515V4.58921H86.8126V6.76763H82.7515Z" fill="#6F7A84"/>
<path d="M102.781 4.58921L93.4087 28H90.7391L93.8063 20.3319L87.5299 4.58921H90.3983L95.2831 17.4855L100.111 4.58921H102.781Z" fill="#6F7A84"/>
<path d="M110.32 20.7676C109.127 20.7676 108.058 20.5643 107.111 20.1577C106.164 19.7317 105.416 19.1508 104.867 18.4149C104.318 17.6597 104.015 16.7981 103.959 15.8299H106.628C106.704 16.6238 107.064 17.2725 107.707 17.7759C108.37 18.2794 109.231 18.5311 110.292 18.5311C111.276 18.5311 112.052 18.3084 112.62 17.8631C113.188 17.4177 113.472 16.8562 113.472 16.1784C113.472 15.4813 113.169 14.9682 112.564 14.639C111.958 14.2905 111.021 13.9516 109.752 13.6224C108.597 13.3126 107.65 13.0028 106.912 12.6929C106.193 12.3638 105.568 11.8893 105.038 11.2697C104.527 10.6307 104.271 9.79806 104.271 8.77178C104.271 7.95851 104.508 7.213 104.981 6.53527C105.454 5.85754 106.126 5.32503 106.997 4.93776C107.868 4.53112 108.862 4.3278 109.979 4.3278C111.702 4.3278 113.094 4.77317 114.154 5.6639C115.214 6.55463 115.782 7.77455 115.858 9.32365H113.274C113.217 8.49101 112.885 7.82296 112.28 7.3195C111.693 6.81604 110.898 6.56431 109.894 6.56431C108.966 6.56431 108.228 6.76763 107.679 7.17427C107.13 7.58091 106.855 8.11342 106.855 8.77178C106.855 9.29461 107.016 9.73029 107.338 10.0788C107.679 10.408 108.095 10.6791 108.588 10.8921C109.099 11.0858 109.799 11.3084 110.689 11.5602C111.806 11.87 112.715 12.1798 113.416 12.4896C114.116 12.7801 114.713 13.2254 115.205 13.8257C115.716 14.426 115.981 15.2102 116 16.1784C116 17.0498 115.763 17.834 115.29 18.5311C114.817 19.2282 114.145 19.7801 113.274 20.1867C112.422 20.574 111.437 20.7676 110.32 20.7676Z" fill="#6F7A84"/>
</svg>
