<svg width="12" height="15" viewBox="0 0 12 15" fill="none" xmlns="http://www.w3.org/2000/svg">
<path d="M8.30769 1.875H11.0769C11.6308 1.875 12 2.25 12 2.8125V3.75H0V2.8125C0 2.25 0.461538 1.875 0.923077 1.875H3.69231C3.87692 0.84375 4.89231 0 6 0C7.10769 0 8.12308 0.84375 8.30769 1.875ZM4.61538 1.875H7.38462C7.2 1.3125 6.55385 0.9375 6 0.9375C5.44615 0.9375 4.8 1.3125 4.61538 1.875ZM0.923077 4.6875H11.0769L10.2462 14.1562C10.2462 14.625 9.78462 15 9.32308 15H2.67692C2.21538 15 1.84615 14.625 1.75385 14.1562L0.923077 4.6875Z" fill="white"/>
</svg>
